<svg width="27" height="27" viewBox="0 0 27 27" fill="none" xmlns="http://www.w3.org/2000/svg">
<path fill-rule="evenodd" clip-rule="evenodd" d="M13.3735 26.747C20.7595 26.747 26.747 20.7595 26.747 13.3735C26.747 5.98752 20.7595 0 13.3735 0C5.98752 0 0 5.98752 0 13.3735C0 20.7595 5.98752 26.747 13.3735 26.747ZM14.228 5H17.093C17.093 7.16811 18.7827 8.94203 20.9375 9.01594V11.9232C19.5417 11.8986 18.2194 11.4304 17.142 10.642V16.5797C17.142 19.5609 14.7423 22 11.7794 22C8.8164 22 6.41667 19.5855 6.41667 16.5797C6.41667 13.5986 8.76743 11.2087 11.6814 11.1594V14.0667C10.3591 14.1159 9.28166 15.2246 9.28166 16.5797C9.28166 17.9594 10.3836 19.0928 11.7549 19.0928C13.1261 19.0928 14.228 17.9594 14.228 16.5797V5Z" fill="url(#paint0_linear_158_216)"/>
<defs>
<linearGradient id="paint0_linear_158_216" x1="37.9265" y1="18.4681" x2="-5.95559" y2="18.4167" gradientUnits="userSpaceOnUse">
<stop stop-color="#C92D2A"/>
<stop offset="0.139483" stop-color="#BF2825"/>
<stop offset="0.709427" stop-color="#E73D3A"/>
<stop offset="0.957555" stop-color="#E95656"/>
</linearGradient>
</defs>
</svg>
