<svg width="27" height="27" viewBox="0 0 27 27" fill="none" xmlns="http://www.w3.org/2000/svg">
<path fill-rule="evenodd" clip-rule="evenodd" d="M13.3735 26.747C20.7595 26.747 26.747 20.7595 26.747 13.3735C26.747 5.98752 20.7595 0 13.3735 0C5.98752 0 0 5.98752 0 13.3735C0 20.7595 5.98752 26.747 13.3735 26.747ZM21.1533 8.41331C21.6646 8.92796 21.8307 10.1 21.8307 10.1C21.8307 10.1 22 11.478 22 12.8526V14.1409C22 15.5188 21.8307 16.8934 21.8307 16.8934C21.8307 16.8934 21.6646 18.0655 21.1533 18.5801C20.5699 19.1905 19.9245 19.2535 19.5596 19.2892C19.5195 19.2931 19.4828 19.2967 19.45 19.3006C17.0727 19.47 13.5 19.4766 13.5 19.4766C13.5 19.4766 9.08066 19.4368 7.71934 19.3073C7.65312 19.2945 7.57248 19.2846 7.48102 19.2735C7.04964 19.2209 6.37756 19.139 5.84336 18.5801C5.33535 18.0655 5.16934 16.8934 5.16934 16.8934C5.16934 16.8934 5 15.5155 5 14.1409V12.8526C5 11.478 5.17266 10.1 5.17266 10.1C5.17266 10.1 5.33535 8.92796 5.84668 8.41331C6.4301 7.80297 7.07552 7.7399 7.44043 7.70424C7.48048 7.70033 7.51716 7.69675 7.55 7.69281C9.92734 7.52015 13.4967 7.52015 13.4967 7.52015H13.5033C13.5033 7.52015 17.0727 7.52015 19.45 7.69281C19.4828 7.69675 19.5195 7.70033 19.5596 7.70424C19.9245 7.7399 20.5699 7.80297 21.1533 8.41331ZM11.7436 10.9268V15.7047L16.3355 13.3241L11.7436 10.9268Z" fill="url(#paint0_linear_158_204)"/>
<defs>
<linearGradient id="paint0_linear_158_204" x1="37.9265" y1="18.4681" x2="-5.95559" y2="18.4167" gradientUnits="userSpaceOnUse">
<stop stop-color="#C92D2A"/>
<stop offset="0.139483" stop-color="#BF2825"/>
<stop offset="0.709427" stop-color="#E73D3A"/>
<stop offset="0.957555" stop-color="#E95656"/>
</linearGradient>
</defs>
</svg>
